<?xml version="1.0" encoding="UTF-8" standalone="no"?>
<!-- Generator: Adobe Illustrator 24.0.1, SVG Export Plug-In . SVG Version: 6.00 Build 0)  -->

<svg
   version="1.1"
   id="Layer_1"
   x="0px"
   y="0px"
   viewBox="0 0 539.99998 260"
   xml:space="preserve"
   sodipodi:docname="Logo_Pandia3D.svg"
   width="540"
   height="260"
   inkscape:version="1.1 (ce6663b3b7, 2021-05-25)"
   inkscape:export-filename="/home/tim/dev/StaticScanner_cpp/resources/ogre/packs/Logo_Pandia3DV6.png"
   inkscape:export-xdpi="73.846153"
   inkscape:export-ydpi="73.846153"
   xmlns:inkscape="http://www.inkscape.org/namespaces/inkscape"
   xmlns:sodipodi="http://sodipodi.sourceforge.net/DTD/sodipodi-0.dtd"
   xmlns="http://www.w3.org/2000/svg"
   xmlns:svg="http://www.w3.org/2000/svg"><defs
   id="defs99" /><sodipodi:namedview
   id="namedview97"
   pagecolor="#ffffff"
   bordercolor="#666666"
   borderopacity="1.0"
   inkscape:pageshadow="2"
   inkscape:pageopacity="0.0"
   inkscape:pagecheckerboard="0"
   showgrid="false"
   inkscape:zoom="1.278963"
   inkscape:cx="220.10019"
   inkscape:cy="130.18359"
   inkscape:window-width="1848"
   inkscape:window-height="1016"
   inkscape:window-x="1992"
   inkscape:window-y="27"
   inkscape:window-maximized="1"
   inkscape:current-layer="Layer_1"
   fit-margin-top="0"
   fit-margin-left="0"
   fit-margin-right="0"
   fit-margin-bottom="0" />
<style
   type="text/css"
   id="style2">
	.st0{fill:#A1120F;}
	.st1{fill:#A7100D;}
	.st2{fill:#A11412;}
	.st3{fill:#7C1716;}
	.st4{fill:#AA1310;}
	.st5{fill:#831312;}
	.st6{fill:#841C1B;}
	.st7{fill:#801312;}
	.st8{fill:#761515;}
	.st9{fill:#611818;}
	.st10{fill:#5A1B1B;}
	.st11{fill:#702020;}
	.st12{fill:#050505;}
	.st13{fill:#090909;}
	.st14{fill:#C84542;}
	.st15{fill:#B5120E;}
	.st16{fill:#B91510;}
	.st17{fill:#C32926;}
	.st18{fill:#C2211D;}
	.st19{fill:#B4120D;}
	.st20{fill:#AA0F0C;}
	.st21{fill:#B71410;}
	.st22{fill:#C4312E;}
	.st23{fill:#C53A38;}
	.st24{fill:#FFFFFF;}
</style>
<g
   id="g94"
   transform="translate(9.9745108,9.0740716)">
	<circle
   class="st0"
   cx="399.85999"
   cy="121.34"
   r="96.300003"
   id="circle4" />
	<path
   class="st1"
   d="m 459.46,200.29 c -2.8,0.26 -42.36,6 -46.54,6.72 0.12,-0.47 0.1,-1.04 0.37,-1.39 2.21,-2.79 32.14,-39.59 32.64,-39.84 0.96,-0.49 45.76,-20.9 46.48,-21.01 -4.93,8.6 -28.83,49.83 -28.25,51.23 0,0 -2.03,3.43 -4.7,4.29 z"
   id="path6" />
	<path
   class="st0"
   d="m 343.85,38.78 c 1.16,-1.92 7.48,-3.58 7.48,-3.58 1.22,-0.06 44.39,-8.8 48.79,-9.61 -0.28,0.65 -28.2,34.93 -28.45,35.19 -0.72,0.11 -55.21,29.25 -54.73,26.26 0.91,-5.67 25.09,-45.31 26.91,-48.26 z"
   id="path8" />
	<path
   class="st2"
   d="m 448.94,31.76 c 1.98,2.08 4.01,4.21 6.04,6.34 0.27,0.29 0.53,0.58 0.8,0.87 0,0 -0.04,-0.04 -0.04,-0.04 0.26,0.26 0.53,0.52 0.79,0.79 l -0.04,-0.04 c 0.26,0.26 0.53,0.52 0.79,0.79 l -0.04,-0.04 c 0.3,0.26 0.59,0.53 0.89,0.79 0.21,0.2 0.41,0.41 0.62,0.61 0,0.73 28.39,35.11 28.36,35.46 -1,0 -4.09,-0.62 -4.38,-0.76 -3.19,-1.51 -6.39,-2.97 -9.59,-4.46 -10.7,-4.98 -32.83,-15.01 -33.2,-15.04 -0.75,-0.25 -1.49,-0.5 -2.24,-0.76 -0.57,-2.24 -37.01,-29.78 -37.57,-30.69 3.3,0.27 46.45,5.83 48.81,6.18 z"
   id="path10" />
	<path
   class="st3"
   d="m 412.92,207.01 c 4.18,-0.72 43.74,-6.46 46.54,-6.72 -5.17,2.39 -49.03,22.72 -52.78,22.69 -6.57,-0.04 -49.97,-15.58 -50.01,-15.95 17.01,-0.01 37.76,-0.02 54.76,-0.03 0.5,0.01 1,0.01 1.49,0.01 z"
   id="path12" />
	<path
   class="st4"
   d="m 487.1,77.29 c 0.56,1.64 1.12,3.27 1.68,4.91 0.22,6.16 4.13,56.9 3.63,62.57 -1.36,0.19 -22.15,-32.26 -24.3,-35.53 1.01,-1.99 18.77,-31.96 18.99,-31.95 z"
   id="path14" />
	<path
   class="st5"
   d="m 298.19,129.76 c 0,0 -0.8,-3.73 -0.03,-5.22 0.75,-1.21 17.06,-38.27 18.82,-38.17 0.26,2.06 3.47,60.11 3.72,66.65 -0.56,-0.19 -20.41,-21.07 -22.51,-23.26 z"
   id="path16" />
	<path
   class="st6"
   d="m 492.43,141.78 c -0.25,-6.04 -3.43,-53.42 -3.64,-59.58 1.52,4.31 3.11,8.61 4.56,12.95 2.04,6.13 4.03,12.28 5.94,18.45 0.39,1.26 0.72,2.73 0.47,3.98 -2.15,10.85 -4.43,21.67 -6.68,32.5 -0.11,0.32 -0.21,0.65 -0.32,0.97 -1.17,6.31 -2.35,12.63 -3.46,18.61 -7.72,8.29 -24.3,25.65 -25.14,26.35 -0.58,-1.4 23.32,-42.63 28.25,-51.23 0.01,-1.01 0.01,-2.01 0.02,-3 z"
   id="path18" />
	<path
   class="st7"
   d="m 316.16,180.09 c 0.31,-2.15 0.55,-4.32 0.96,-6.45 1.17,-6.14 2.38,-14.47 3.58,-20.61 0.49,0.01 35.68,53.11 35.98,54.01 -8.55,-5.63 -29.89,-19.06 -30.91,-19.36 0,-0.01 -7.84,-6.12 -9.61,-7.59 z"
   id="path20" />
	<path
   class="st8"
   d="m 343.85,38.78 c -1.55,3.19 -26.67,48.26 -26.91,48.25 -0.51,-0.78 -5.46,-9.77 -7.43,-13.49 0.16,-0.44 0.2,-1.01 0.5,-1.31 10.45,-10.44 33.53,-33.27 33.84,-33.45 z"
   id="path22" />
	<path
   class="st9"
   d="m 316.16,180.09 c -1.84,-4.97 -3.74,-9.91 -5.51,-14.9 -4.03,-11.32 -8.47,-24.08 -12.45,-35.42 -0.24,-0.69 22.48,23.02 22.5,23.27 0,0.72 -4.23,24.9 -4.54,27.05 z"
   id="path24" />
	<path
   class="st10"
   d="m 309.51,73.53 c 1.97,3.72 6.92,12.72 7.43,13.49 -0.01,0.99 -18.03,36.3 -18.78,37.51 0.77,-3.86 11.1,-50.3 11.35,-51 z"
   id="path26" />
	<path
   class="st11"
   d="m 444.39,31.56 c 0,0 -43.27,-5.97 -44.27,-5.97 -4.4,0.81 -47.57,9.55 -48.79,9.61 2.74,-1.05 28.67,-9.58 38.86,-13.13 1.86,-0.65 3.63,-0.78 5.48,-0.41 12.77,2.55 25.53,5.12 38.29,7.72 2.77,0.54 7.68,1.55 10.43,2.18 z"
   id="path28" />
	<path
   class="st10"
   d="m 354.47,205.47 c 0.76,0.54 1.53,1.08 2.21,1.56 1.35,0 31.65,10.86 27.12,9.62 -7.77,-2.14 -21.87,-5.34 -29.61,-7.59 -1.16,-0.34 -2.37,-0.84 -3.32,-1.57 -8.3,-6.35 -18.49,-14.7 -26.74,-21.11 -0.18,-0.12 21.79,13.47 30.34,19.09 z"
   id="path30" />
	<path
   class="st6"
   d="m 487.1,77.29 c -2.88,-3.49 -26.06,-30.74 -28.36,-35.46 7.24,7.05 14.48,14.1 21.71,21.17 0.44,0.43 0.84,0.96 1.08,1.51 1.65,3.75 5.82,13.08 5.57,12.78 z"
   id="path32" />
	<g
   id="g48">
		<path
   class="st12"
   d="m 39.54,148.18 c 0.15,0.58 0.24,0.93 0.31,1.22 -0.63,0.81 -14.74,1.03 -22.81,0.4 -0.02,-0.42 -0.05,-0.87 -0.07,-1.26 0.28,-0.22 0.45,-0.48 0.66,-0.51 4.53,-0.66 5.8,-1.89 6.24,-6.37 0.23,-2.35 0.37,-4.72 0.38,-7.08 0.04,-10.98 0.04,-21.97 0,-32.95 -0.01,-2.36 -0.19,-4.73 -0.45,-7.08 -0.41,-3.71 -1.5,-4.78 -5.31,-5.61 -0.47,-0.1 -0.92,-0.29 -1.4,-0.45 -0.04,-0.44 -0.08,-0.8 -0.13,-1.35 0.62,-0.08 1.21,-0.22 1.79,-0.22 7.74,0.01 15.48,0.07 23.22,0.05 4.05,-0.01 7.94,0.8 11.61,2.43 5.92,2.63 10.07,6.78 10.74,13.62 0.82,8.38 -3.04,13.6 -9.74,16.11 -4.82,1.81 -9.9,2.32 -15.05,1.91 -2.11,-0.17 -4.23,-0.24 -6.57,-0.36 -0.1,0.9 -0.26,1.72 -0.27,2.55 -0.04,4.87 -0.06,9.74 -0.06,14.6 0,1.25 -0.02,2.51 0.14,3.74 0.61,4.73 1.8,5.89 6.77,6.61 z M 32.84,89.1 c 0,9.92 0,19.22 0,28.54 1.37,0.3 2.56,0.69 3.78,0.79 1.73,0.15 3.49,0.16 5.23,0.11 8.02,-0.23 13.18,-4.84 13.82,-12.73 C 56.25,98.73 52.06,91.08 44.18,89.77 40.54,89.17 36.79,89.31 32.84,89.1 Z"
   id="path34" />
		<path
   class="st12"
   d="m 190.21,114.4 c -0.25,-9.93 0.38,-19.37 -0.24,-27.9 -2.3,-2.95 -4.76,-2.25 -7.07,-2.59 -0.04,-0.55 -0.07,-1 -0.13,-1.79 4.86,-0.49 9.64,-0.97 14.85,-1.5 0.05,1.36 0.14,2.68 0.14,4 0.01,18.35 -0.01,36.69 0.01,55.04 0,1.61 0.06,3.25 0.41,4.81 0.25,1.13 1.03,2.14 1.52,3.08 1.69,0.27 3.03,0.48 4.49,0.71 0.09,0.46 0.18,0.92 0.29,1.44 -0.42,0.14 -0.76,0.34 -1.1,0.34 -8.11,-0.01 -16.23,0.13 -24.33,-0.14 -6.49,-0.22 -12.11,-2.75 -16.17,-8.03 -8.44,-10.99 -2.97,-27.67 9.44,-31.22 4.65,-1.33 9.09,-0.61 13.38,1.38 1.33,0.61 2.61,1.37 4.51,2.37 z m 0,3.99 c -0.98,-0.87 -2.14,-1.99 -3.4,-3 -7.15,-5.75 -15.47,-3.38 -18.53,5.31 -2.18,6.19 -1.66,12.32 0.99,18.2 2.87,6.36 8.07,9.28 14.97,9.17 4.28,-0.07 5.89,-1.6 5.93,-5.92 0.1,-7.74 0.04,-15.49 0.04,-23.76 z"
   id="path36" />
		<path
   class="st12"
   d="m 122.67,147.6 c 1.32,0.21 2.77,0.44 4.23,0.66 0.06,0.47 0.11,0.83 0.15,1.19 -2.49,0.75 -16.11,0.92 -20.82,0.25 0.04,-0.45 0.09,-0.9 0.13,-1.35 1.91,-0.69 4.22,0.1 6.01,-2.61 0.91,-9.81 0.65,-20.35 0.19,-30.05 -1.76,-2.93 -3.98,-2.33 -6.13,-2.7 -0.07,-0.5 -0.15,-1.05 -0.26,-1.85 4.72,-0.49 9.26,-0.96 14.13,-1.47 0,2.56 0,4.88 0,7.58 2.42,-1.89 4.33,-3.7 6.53,-5.03 8.38,-5.06 17.47,-1.46 20.07,6.73 0.77,2.43 0.81,5.15 0.88,7.74 0.13,4.75 -0.01,9.5 0.05,14.25 0.02,1.73 0.26,3.46 0.38,4.95 2.3,1.87 2.3,1.87 5.58,2.35 0.13,0.2 0.32,0.38 0.38,0.6 0.07,0.23 0.01,0.49 0.01,0.97 -6.9,0 -13.8,0 -20.85,0 0.03,-0.58 0.05,-1.03 0.08,-1.59 0.95,-0.1 1.81,-0.16 2.65,-0.29 2.97,-0.45 3.95,-1.32 3.99,-4.39 0.11,-7.12 0.06,-14.24 0.01,-21.37 -0.04,-6.58 -6.91,-9.93 -12.39,-7.14 -2.96,1.51 -5.24,3.77 -7.22,6.76 0,6.73 -0.04,13.73 0.02,20.72 0.02,2.57 0.18,2.72 2.2,5.09 z"
   id="path38" />
		<path
   class="st13"
   d="m 100.31,146.97 c 0.62,-1 1.37,-2.2 2.22,-3.57 0.28,-0.02 0.74,-0.05 1.2,-0.08 0.11,4.91 -1.39,6.61 -6.89,8 -3.42,-0.11 -5.4,-2.14 -6.79,-5.25 -4.22,4.15 -8.93,6.8 -14.83,4.41 -4.25,-1.72 -6.69,-5.05 -6.92,-9.51 0.16,-5.34 3.37,-8.04 7.71,-9.7 2.89,-1.11 5.89,-1.95 8.83,-2.93 1.63,-0.54 3.25,-1.13 5.25,-1.83 -0.25,-2.32 -0.08,-4.64 -0.78,-6.67 -2.61,-7.62 -11.54,-6.81 -15.16,-2.56 -1.26,1.49 -2.2,3.25 -3.4,5.07 -0.47,-0.05 -1.05,-0.12 -1.93,-0.22 0.21,-0.62 0.36,-1.04 0.49,-1.46 1.88,-6.03 5.82,-9.77 12.17,-10.58 8.39,-1.07 15.3,3.73 15.74,11.88 0.32,6.09 0.25,12.2 0.39,18.3 0.04,1.62 0.13,3.24 0.28,4.85 0.1,1.11 0.72,1.82 2.42,1.85 z M 89.76,128.81 c -3.74,1.58 -7.02,2.76 -10.1,4.33 -4.19,2.13 -4.25,7.99 -2.46,10.82 1.75,2.77 3.83,3.55 7.01,2.59 2.49,-0.75 4.49,-2.09 5.55,-4.21 0,-4.51 0,-8.72 0,-13.53 z"
   id="path40" />
		<path
   class="st13"
   d="m 236.43,122.3 c -0.21,-0.03 -0.68,-0.09 -1.09,-0.14 -0.1,-0.36 -0.26,-0.6 -0.21,-0.79 2.5,-10.89 14.58,-14.54 23,-8.85 3.99,2.7 5.22,6.87 5.34,11.37 0.15,5.74 0.03,11.49 0.08,17.24 0.01,1.6 0.19,3.19 0.29,4.95 1.01,0.21 1.79,0.37 2.63,0.54 0.44,-0.65 0.82,-1.13 1.11,-1.66 0.3,-0.53 0.51,-1.09 0.79,-1.7 0.62,0.06 1.09,0.1 1.43,0.13 0.91,1.05 -0.97,5.03 -2.89,6.48 -3.82,2.88 -7.56,1.67 -10.94,-3.45 -2.06,1.35 -3.99,2.97 -6.19,4 -5.03,2.36 -11.72,0.1 -14.24,-4.76 -2.16,-4.15 -2.07,-9.98 4.19,-13.38 2.05,-1.11 4.37,-1.78 6.59,-2.55 3.15,-1.09 6.33,-2.09 9.39,-3.09 0.74,-2.75 0.22,-5.12 -0.57,-7.3 -1.99,-5.5 -9.5,-7.09 -14.02,-2.94 -1.69,1.57 -2.91,3.63 -4.69,5.9 z m 19.68,19.34 c -0.33,-4.12 0.25,-8.29 -0.37,-12.74 -3.43,1.36 -6.59,2.48 -9.63,3.85 -3.95,1.79 -5.33,7.44 -2.93,11.28 1.59,2.55 3.84,3.53 6.69,2.65 2.58,-0.79 4.76,-2.16 6.24,-5.04 z"
   id="path42" />
		<path
   class="st12"
   d="m 214.04,146.33 c 1.14,-4.15 1.11,-27.5 -0.03,-31.59 -1.6,-2.22 -4.11,-1.27 -6.35,-1.82 -0.09,-0.43 -0.18,-0.89 -0.36,-1.76 4.99,-0.48 9.85,-0.95 14.98,-1.45 0.06,1.23 0.15,2.19 0.15,3.15 -0.01,9.61 -0.04,19.23 -0.04,28.84 0,1.99 -0.15,4.04 2.07,5.86 1.09,0.17 2.66,0.42 4.38,0.69 0.05,0.41 0.1,0.86 0.18,1.55 -7.19,0 -14.24,0 -21.43,0 0,-0.46 0,-0.91 0,-1.47 1.98,-0.81 4.54,0.26 6.45,-2 z"
   id="path44" />
		<path
   class="st12"
   d="m 223.28,94.57 c -0.03,2.82 -1.9,4.63 -4.74,4.58 -2.7,-0.04 -4.83,-2.12 -4.79,-4.69 0.04,-2.56 2.21,-4.59 4.9,-4.58 2.86,0 4.66,1.83 4.63,4.69 z"
   id="path46" />
	</g>
	<path
   class="st6"
   d="M 463.17,197.27"
   id="path50" />
	<path
   class="st8"
   d="m 343.09,39.65 c -0.26,0.27 -0.53,0.53 -0.79,0.8 0.27,-0.27 0.53,-0.54 0.79,-0.8 z"
   id="path52" />
	<path
   class="st6"
   d="m 456.53,39.71 c -0.26,-0.26 -0.53,-0.52 -0.79,-0.79 0.26,0.27 0.53,0.53 0.79,0.79 z"
   id="path54" />
	<path
   class="st14"
   d="m 492.76,151.04 c 0.11,-0.32 0.21,-0.65 0.32,-0.97 -0.11,0.32 -0.22,0.64 -0.32,0.97 z"
   id="path56" />
	<path
   class="st6"
   d="m 455.78,38.97 c -0.27,-0.29 -0.53,-0.58 -0.8,-0.87 0.27,0.29 0.53,0.58 0.8,0.87 z"
   id="path58" />
	<path
   class="st6"
   d="m 458.13,41.21 c -0.3,-0.26 -0.59,-0.53 -0.89,-0.79 0.29,0.27 0.59,0.53 0.89,0.79 z"
   id="path60" />
	<path
   class="st6"
   d="m 457.28,40.46 c -0.26,-0.26 -0.53,-0.52 -0.79,-0.79 0.26,0.27 0.53,0.53 0.79,0.79 z"
   id="path62" />
	<path
   class="st15"
   d="m 492.41,144.77 c -0.72,0.11 -45.52,20.52 -46.48,21.01 0.11,-0.72 20.37,-51.14 22.18,-56.53 -1.75,-3.24 -28.7,-49.32 -30.42,-52.97 7.2,2.08 46.81,19.68 49.42,21.01 0.29,0.15 -17.98,29.97 -19,31.96 2.15,3.26 24.31,34.52 24.3,35.52 z"
   id="path64" />
	<path
   class="st16"
   d="m 412.92,207.01 c -1.87,-1.7 -33.12,-35.57 -34.49,-38.23 2.68,-0.25 66.75,-3 67.5,-3 0,0 -32.51,41.22 -33.01,41.23 z"
   id="path66" />
	<path
   class="st17"
   d="m 406.2,111.96 c 4.36,-0.04 57.55,-2.67 61.91,-2.72 -1.81,5.39 -21.68,56.28 -22.18,56.53"
   id="path68" />
	<path
   class="st18"
   d="m 409.68,111.96 c 0.2,-2.1 -38.01,-50.94 -38.02,-51.19 0.25,-0.25 61.76,-3.41 66.02,-4.5 0.75,0.25 25.19,41.26 30.42,52.97"
   id="path70" />
	<path
   class="st19"
   d="m 352.16,115.4 c -0.68,0.17 -1.36,0.33 -2.04,0.5 -0.42,-0.86 -33.18,-28.01 -33.18,-28.87 8.92,-4.54 54.73,-26.51 54.73,-26.26"
   id="path72" />
	<path
   class="st20"
   d="m 352.16,115.4 c -0.06,0.61 -30.55,37.08 -31.46,37.63 -0.02,-0.25 -3.77,-65.01 -3.76,-66 0.25,0 34.8,27.51 35.22,28.37 z"
   id="path74" />
	<path
   class="st19"
   d="m 437.68,56.27 c -4.25,1.09 -64.21,4.25 -66.02,4.5 0.93,-1.54 27.45,-35.19 28.45,-35.19 2.18,-0.54 36.06,27.91 37.57,30.69 z"
   id="path76" />
	<path
   class="st1"
   d="m 412.92,207.01 c 0.81,0.88 -35.5,0.02 -52.5,0.03 -1.2,0 -2.4,0 -3.75,0 -0.68,-0.48 -35.79,-53.45 -35.98,-54.01 0.5,-1.18 57.73,15.75 57.73,15.75 0.51,0.25 31.32,34.75 34.5,38.23 z"
   id="path78" />
	<path
   class="st21"
   d="m 369.42,149.24 c 0.17,0.58 6.18,13.1 9.01,18.78 0,0.25 -0.01,0.5 -0.01,0.75 -4.26,-0.75 -57.72,-15.01 -57.73,-15.75 0.91,-0.54 30.23,-37.69 31.46,-37.63"
   id="path80" />
	<path
   class="st22"
   d="m 378.43,168.78 c 0,-0.25 0.01,-0.5 0.01,-0.75 0.49,-0.25 32.25,-56.06 32.25,-56.06 0,0 33.2,50.02 35.25,53.82 -1.08,0.54 -67.01,3.24 -67.51,2.99 z"
   id="path82" />
	<path
   class="st17"
   d="m 410.68,111.96 -58.53,3.44 c 0,0 19.31,-54.5 19.51,-54.63 1.68,-0.17 39.02,51.19 39.02,51.19 z"
   id="path84" />
	<path
   class="st23"
   d="m 352.16,115.88 c 0,0 61.11,-4.63 58.53,-3.44 -0.01,1.11 -31.75,55.81 -32.25,56.06 -2.84,-5.68 -8.84,-18.21 -9.01,-18.78"
   id="path86" />
	<g
   id="g92">
		<path
   class="st24"
   d="m 349.87,117.74 v -1.84 c 13.12,-2.27 19.69,-7.63 19.69,-16.08 0,-3.1 -1.05,-5.73 -3.14,-7.88 -2.1,-2.15 -4.69,-3.22 -7.79,-3.22 -2.19,0 -4.2,0.6 -6.04,1.79 -1.84,1.19 -3.27,2.82 -4.29,4.87 l -1.8,-0.76 c 1.06,-2.96 2.94,-5.31 5.66,-7.04 2.72,-1.73 5.84,-2.6 9.38,-2.6 4.45,0 8.15,1.35 11.1,4.06 2.95,2.71 4.43,6.08 4.43,10.12 0,3.14 -0.97,6 -2.93,8.58 -1.95,2.58 -4.77,4.63 -8.45,6.15 v 0.22 c 4.45,1.16 7.93,3.28 10.45,6.39 2.52,3.11 3.77,6.82 3.77,11.15 0,5.81 -1.88,10.54 -5.63,14.18 -3.76,3.65 -8.6,5.47 -14.55,5.47 -3.28,0 -6.12,-0.52 -8.53,-1.57 -2.41,-1.05 -4.9,-2.85 -7.49,-5.41 l 1.37,-1.35 c 4.3,3.46 8.51,5.2 12.63,5.2 4.08,0 7.47,-1.25 10.17,-3.74 2.7,-2.49 4.05,-5.77 4.05,-9.82 0,-4.41 -1.44,-8.38 -4.32,-11.9 -2.88,-3.52 -6.62,-5.29 -11.21,-5.29 z"
   id="path88" />
		<path
   class="st24"
   d="m 389.76,150.07 v -1.84 c 2.75,0 4.65,-0.75 5.7,-2.25 1.05,-1.5 1.57,-4.11 1.57,-7.83 V 98.53 c 0,-3.79 -0.52,-6.43 -1.57,-7.91 -1.05,-1.48 -2.95,-2.22 -5.7,-2.22 v -1.84 h 29.67 c 10.96,0 19.73,3.09 26.31,9.26 6.58,6.17 9.86,14.02 9.86,23.55 0,9.35 -3.11,16.8 -9.34,22.36 -6.23,5.56 -14.9,8.34 -26.01,8.34 z M 417.7,89 h -12.2 v 46.89 c 0,4.51 0.55,7.6 1.64,9.26 1.09,1.66 3.28,2.49 6.56,2.49 h 6.62 c 7.88,0 14.07,-2.52 18.59,-7.55 4.52,-5.04 6.78,-11.9 6.78,-20.6 0,-9.24 -2.47,-16.63 -7.41,-22.17 C 433.35,91.77 426.49,89 417.7,89 Z"
   id="path90" />
	</g>
</g>
</svg>
